<svg width="55" height="34" viewBox="0 0 55 34" fill="none" xmlns="http://www.w3.org/2000/svg">
<g clip-path="url(#clip0)">
<path d="M0 14.5C-1.65685 14.5 -3 15.8431 -3 17.5C-3 19.1569 -1.65685 20.5 0 20.5V14.5ZM51.75 17.5L53.4931 19.9417C54.2818 19.3786 54.75 18.4691 54.75 17.5C54.75 16.5309 54.2818 15.6214 53.4931 15.0583L51.75 17.5ZM34.5826 1.55834C33.2341 0.595669 31.3605 0.908436 30.3978 2.25693C29.4352 3.60542 29.7479 5.47899 31.0964 6.44166L34.5826 1.55834ZM31.0964 28.5583C29.7479 29.521 29.4352 31.3946 30.3978 32.7431C31.3605 34.0916 33.2341 34.4043 34.5826 33.4417L31.0964 28.5583ZM0 20.5H51.75V14.5H0V20.5ZM53.4931 15.0583L34.5826 1.55834L31.0964 6.44166L50.0069 19.9417L53.4931 15.0583ZM34.5826 33.4417L53.4931 19.9417L50.0069 15.0583L31.0964 28.5583L34.5826 33.4417Z" fill="#F8F8F8"/>
</g>
<defs>
<clipPath id="clip0">
<rect width="55" height="34" fill="white"/>
</clipPath>
</defs>
</svg>
